<svg xmlns="http://www.w3.org/2000/svg" xmlns:xlink="http://www.w3.org/1999/xlink" width="319" zoomAndPan="magnify" viewBox="0 0 239.25 83.999999" height="112" preserveAspectRatio="xMidYMid meet" version="1.0"><defs><g/><clipPath id="749d093883"><path d="M 0.0429688 14.402344 L 41.734375 14.402344 L 41.734375 57.652344 L 0.0429688 57.652344 Z M 0.0429688 14.402344 " clip-rule="nonzero"/></clipPath><clipPath id="13d198134a"><path d="M 5.867188 14.402344 L 35.910156 14.402344 C 37.457031 14.402344 38.9375 15.023438 40.03125 16.125 C 41.121094 17.226562 41.734375 18.71875 41.734375 20.277344 L 41.734375 51.769531 C 41.734375 53.328125 41.121094 54.824219 40.03125 55.925781 C 38.9375 57.027344 37.457031 57.644531 35.910156 57.644531 L 5.867188 57.644531 C 4.320312 57.644531 2.839844 57.027344 1.746094 55.925781 C 0.65625 54.824219 0.0429688 53.328125 0.0429688 51.769531 L 0.0429688 20.277344 C 0.0429688 18.71875 0.65625 17.226562 1.746094 16.125 C 2.839844 15.023438 4.320312 14.402344 5.867188 14.402344 Z M 5.867188 14.402344 " clip-rule="nonzero"/></clipPath><clipPath id="d6121ee0f1"><path d="M 5.867188 14.402344 L 35.910156 14.402344 C 37.457031 14.402344 38.9375 15.023438 40.03125 16.125 C 41.121094 17.226562 41.734375 18.71875 41.734375 20.277344 L 41.734375 51.769531 C 41.734375 53.328125 41.121094 54.824219 40.03125 55.925781 C 38.9375 57.027344 37.457031 57.644531 35.910156 57.644531 L 5.867188 57.644531 C 4.320312 57.644531 2.839844 57.027344 1.746094 55.925781 C 0.65625 54.824219 0.0429688 53.328125 0.0429688 51.769531 L 0.0429688 20.277344 C 0.0429688 18.71875 0.65625 17.226562 1.746094 16.125 C 2.839844 15.023438 4.320312 14.402344 5.867188 14.402344 Z M 5.867188 14.402344 " clip-rule="nonzero"/></clipPath><clipPath id="8bb206081b"><path d="M 4.964844 28.570312 L 20.1875 28.570312 L 20.1875 42.105469 L 4.964844 42.105469 Z M 4.964844 28.570312 " clip-rule="nonzero"/></clipPath><clipPath id="889612e7c2"><path d="M 13.050781 28.855469 L 20.074219 41.253906 C 20.175781 41.429688 20.171875 41.648438 20.074219 41.824219 C 19.972656 42 19.785156 42.105469 19.585938 42.105469 L 5.550781 42.105469 C 5.351562 42.105469 5.164062 42 5.066406 41.824219 C 4.964844 41.648438 4.964844 41.429688 5.0625 41.253906 L 12.085938 28.855469 C 12.1875 28.679688 12.371094 28.574219 12.570312 28.574219 C 12.769531 28.574219 12.953125 28.679688 13.050781 28.855469 Z M 13.050781 28.855469 " clip-rule="nonzero"/></clipPath><clipPath id="3ac5b2e7c6"><path d="M 13.050781 28.855469 L 20.074219 41.253906 C 20.175781 41.429688 20.171875 41.648438 20.074219 41.824219 C 19.972656 42 19.785156 42.105469 19.585938 42.105469 L 5.550781 42.105469 C 5.351562 42.105469 5.164062 42 5.066406 41.824219 C 4.964844 41.648438 4.964844 41.429688 5.0625 41.253906 L 12.085938 28.855469 C 12.1875 28.679688 12.371094 28.574219 12.570312 28.574219 C 12.769531 28.574219 12.953125 28.679688 13.050781 28.855469 Z M 13.050781 28.855469 " clip-rule="nonzero"/></clipPath><clipPath id="dc98492cb7"><path d="M 14.507812 26.839844 L 27.242188 26.839844 L 27.242188 38.195312 L 14.507812 38.195312 Z M 14.507812 26.839844 " clip-rule="nonzero"/></clipPath><clipPath id="bec8faf58e"><path d="M 21.371094 37.90625 L 27.15625 27.691406 C 27.257812 27.515625 27.253906 27.296875 27.15625 27.125 C 27.054688 26.949219 26.867188 26.839844 26.667969 26.839844 L 15.109375 26.839844 C 14.910156 26.839844 14.722656 26.949219 14.625 27.125 C 14.523438 27.296875 14.523438 27.515625 14.621094 27.691406 L 20.40625 37.90625 C 20.507812 38.078125 20.691406 38.1875 20.890625 38.1875 C 21.089844 38.1875 21.273438 38.078125 21.371094 37.90625 Z M 21.371094 37.90625 " clip-rule="nonzero"/></clipPath><clipPath id="4a16d76a46"><path d="M 21.371094 37.90625 L 27.15625 27.691406 C 27.257812 27.515625 27.253906 27.296875 27.15625 27.125 C 27.054688 26.949219 26.867188 26.839844 26.667969 26.839844 L 15.109375 26.839844 C 14.910156 26.839844 14.722656 26.949219 14.625 27.125 C 14.523438 27.296875 14.523438 27.515625 14.621094 27.691406 L 20.40625 37.90625 C 20.507812 38.078125 20.691406 38.1875 20.890625 38.1875 C 21.089844 38.1875 21.273438 38.078125 21.371094 37.90625 Z M 21.371094 37.90625 " clip-rule="nonzero"/></clipPath><clipPath id="8353e2ea7a"><path d="M 21.605469 28.570312 L 36.789062 28.570312 L 36.789062 42.105469 L 21.605469 42.105469 Z M 21.605469 28.570312 " clip-rule="nonzero"/></clipPath><clipPath id="5d83da5ca6"><path d="M 29.691406 28.855469 L 36.714844 41.253906 C 36.8125 41.429688 36.8125 41.648438 36.710938 41.824219 C 36.613281 42 36.425781 42.105469 36.226562 42.105469 L 22.191406 42.105469 C 21.992188 42.105469 21.804688 42 21.707031 41.824219 C 21.605469 41.648438 21.605469 41.429688 21.703125 41.253906 L 28.726562 28.855469 C 28.824219 28.679688 29.011719 28.574219 29.207031 28.574219 C 29.40625 28.574219 29.59375 28.679688 29.691406 28.855469 Z M 29.691406 28.855469 " clip-rule="nonzero"/></clipPath><clipPath id="9028299c38"><path d="M 29.691406 28.855469 L 36.714844 41.253906 C 36.8125 41.429688 36.8125 41.648438 36.710938 41.824219 C 36.613281 42 36.425781 42.105469 36.226562 42.105469 L 22.191406 42.105469 C 21.992188 42.105469 21.804688 42 21.707031 41.824219 C 21.605469 41.648438 21.605469 41.429688 21.703125 41.253906 L 28.726562 28.855469 C 28.824219 28.679688 29.011719 28.574219 29.207031 28.574219 C 29.40625 28.574219 29.59375 28.679688 29.691406 28.855469 Z M 29.691406 28.855469 " clip-rule="nonzero"/></clipPath><clipPath id="af6c510607"><rect x="0" width="157" y="0" height="55"/></clipPath></defs><g clip-path="url(#749d093883)"><g clip-path="url(#13d198134a)"><g clip-path="url(#d6121ee0f1)"><path fill="#15c411" d="M 0.0429688 14.402344 L 41.734375 14.402344 L 41.734375 57.613281 L 0.0429688 57.613281 Z M 0.0429688 14.402344 " fill-opacity="1" fill-rule="nonzero"/></g></g></g><g clip-path="url(#8bb206081b)"><g clip-path="url(#889612e7c2)"><g clip-path="url(#3ac5b2e7c6)"><path fill="#ffffff" d="M 4.582031 28.003906 L 20.578125 28.003906 L 20.578125 42.105469 L 4.582031 42.105469 Z M 4.582031 28.003906 " fill-opacity="1" fill-rule="nonzero"/></g></g></g><g clip-path="url(#dc98492cb7)"><g clip-path="url(#bec8faf58e)"><g clip-path="url(#4a16d76a46)"><path fill="#ffffff" d="M 14.140625 26.839844 L 27.65625 26.839844 L 27.65625 38.753906 L 14.140625 38.753906 Z M 14.140625 26.839844 " fill-opacity="1" fill-rule="nonzero"/></g></g></g><g clip-path="url(#8353e2ea7a)"><g clip-path="url(#5d83da5ca6)"><g clip-path="url(#9028299c38)"><path fill="#ffffff" d="M 21.222656 28.003906 L 37.21875 28.003906 L 37.21875 42.105469 L 21.222656 42.105469 Z M 21.222656 28.003906 " fill-opacity="1" fill-rule="nonzero"/></g></g></g><g transform="matrix(1, 0, 0, 1, 63, 14)"><g clip-path="url(#af6c510607)"><g fill="#15c411" fill-opacity="1"><g transform="translate(2.797863, 39.367244)"><g><path d="M 20.796875 -35.8125 L 35.25 0 L 26.484375 0 L 23.828125 -7.15625 L 10.203125 -7.15625 L 7.546875 0 L -1.21875 0 L 13.234375 -35.8125 Z M 21.046875 -14.328125 L 17.0625 -24.734375 L 16.96875 -24.734375 L 12.984375 -14.328125 Z M 21.046875 -14.328125 "/></g></g></g><g fill="#15c411" fill-opacity="1"><g transform="translate(38.776296, 39.367244)"><g><path d="M 2.609375 0 L 2.609375 -37.328125 L 10.28125 -37.328125 L 10.28125 0 Z M 2.609375 0 "/></g></g></g><g fill="#15c411" fill-opacity="1"><g transform="translate(53.619219, 39.367244)"><g><path d="M 3.90625 -22.265625 L 3.90625 -30.5625 L 11.59375 -30.5625 L 11.59375 -22.265625 L 16.28125 -22.265625 L 16.28125 -16.40625 L 11.59375 -16.40625 L 11.59375 -9.328125 C 11.59375 -7.273438 12.171875 -6.25 13.328125 -6.25 C 13.617188 -6.25 13.921875 -6.304688 14.234375 -6.421875 C 14.554688 -6.535156 14.800781 -6.648438 14.96875 -6.765625 L 15.234375 -6.9375 L 17.140625 -0.734375 C 15.492188 0.191406 13.613281 0.65625 11.5 0.65625 C 10.050781 0.65625 8.804688 0.398438 7.765625 -0.109375 C 6.722656 -0.617188 5.929688 -1.296875 5.390625 -2.140625 C 4.859375 -2.992188 4.476562 -3.890625 4.25 -4.828125 C 4.019531 -5.773438 3.90625 -6.785156 3.90625 -7.859375 L 3.90625 -16.40625 L 0.6875 -16.40625 L 0.6875 -22.265625 Z M 3.90625 -22.265625 "/></g></g></g><g fill="#15c411" fill-opacity="1"><g transform="translate(72.715283, 39.367244)"><g><path d="M 3.34375 -34.6875 C 4.238281 -35.582031 5.304688 -36.03125 6.546875 -36.03125 C 7.796875 -36.03125 8.867188 -35.582031 9.765625 -34.6875 C 10.660156 -33.789062 11.109375 -32.71875 11.109375 -31.46875 C 11.109375 -30.226562 10.660156 -29.15625 9.765625 -28.25 C 8.867188 -27.351562 7.796875 -26.90625 6.546875 -26.90625 C 5.304688 -26.90625 4.238281 -27.351562 3.34375 -28.25 C 2.445312 -29.15625 2 -30.226562 2 -31.46875 C 2 -32.71875 2.445312 -33.789062 3.34375 -34.6875 Z M 2.609375 -22.265625 L 2.609375 0 L 10.28125 0 L 10.28125 -22.265625 Z M 2.609375 -22.265625 "/></g></g></g><g fill="#15c411" fill-opacity="1"><g transform="translate(87.775202, 39.367244)"><g><path d="M 12.28125 -22.921875 C 13.550781 -22.921875 14.804688 -22.773438 16.046875 -22.484375 C 17.296875 -22.191406 18.226562 -21.898438 18.84375 -21.609375 L 19.75 -21.1875 L 17.234375 -16.140625 C 15.492188 -17.066406 13.84375 -17.53125 12.28125 -17.53125 C 11.414062 -17.53125 10.800781 -17.4375 10.4375 -17.25 C 10.070312 -17.0625 9.890625 -16.707031 9.890625 -16.1875 C 9.890625 -16.070312 9.90625 -15.957031 9.9375 -15.84375 C 9.96875 -15.726562 10.023438 -15.617188 10.109375 -15.515625 C 10.203125 -15.410156 10.28125 -15.320312 10.34375 -15.25 C 10.414062 -15.1875 10.539062 -15.109375 10.71875 -15.015625 C 10.894531 -14.929688 11.03125 -14.867188 11.125 -14.828125 C 11.226562 -14.785156 11.394531 -14.71875 11.625 -14.625 C 11.863281 -14.539062 12.039062 -14.476562 12.15625 -14.4375 C 12.269531 -14.394531 12.460938 -14.328125 12.734375 -14.234375 C 13.015625 -14.148438 13.226562 -14.09375 13.375 -14.0625 C 14.269531 -13.800781 15.050781 -13.507812 15.71875 -13.1875 C 16.382812 -12.875 17.082031 -12.441406 17.8125 -11.890625 C 18.550781 -11.335938 19.125 -10.640625 19.53125 -9.796875 C 19.9375 -8.960938 20.140625 -8.007812 20.140625 -6.9375 C 20.140625 -1.875 16.625 0.65625 9.59375 0.65625 C 8 0.65625 6.484375 0.410156 5.046875 -0.078125 C 3.617188 -0.578125 2.585938 -1.070312 1.953125 -1.5625 L 1 -2.34375 L 4.125 -7.59375 C 4.351562 -7.394531 4.65625 -7.15625 5.03125 -6.875 C 5.40625 -6.601562 6.082031 -6.226562 7.0625 -5.75 C 8.050781 -5.269531 8.910156 -5.03125 9.640625 -5.03125 C 11.234375 -5.03125 12.03125 -5.566406 12.03125 -6.640625 C 12.03125 -7.128906 11.828125 -7.507812 11.421875 -7.78125 C 11.015625 -8.0625 10.328125 -8.375 9.359375 -8.71875 C 8.390625 -9.070312 7.628906 -9.390625 7.078125 -9.671875 C 5.679688 -10.398438 4.578125 -11.21875 3.765625 -12.125 C 2.960938 -13.039062 2.5625 -14.25 2.5625 -15.75 C 2.5625 -18.007812 3.4375 -19.769531 5.1875 -21.03125 C 6.9375 -22.289062 9.300781 -22.921875 12.28125 -22.921875 Z M 12.28125 -22.921875 "/></g></g></g><g fill="#15c411" fill-opacity="1"><g transform="translate(111.081001, 39.367244)"><g><path d="M 2.609375 0 L 2.609375 -37.328125 L 10.28125 -37.328125 L 10.28125 0 Z M 2.609375 0 "/></g></g></g><g fill="#15c411" fill-opacity="1"><g transform="translate(125.923924, 39.367244)"><g><path d="M 19.484375 -22.265625 L 28.34375 -22.265625 L 10.84375 11.28125 L 2 11.28125 L 9.671875 -3.46875 L -0.875 -22.265625 L 7.984375 -22.265625 L 14.1875 -10.84375 Z M 19.484375 -22.265625 "/></g></g></g></g></g></svg>